<?xml version="1.0" encoding="UTF-8"?>
<!DOCTYPE svg PUBLIC "-//W3C//DTD SVG 1.0//EN" "http://www.w3.org/TR/2001/REC-SVG-20010904/DTD/svg10.dtd">
<svg width="568.3" height="302.0" xmlns="http://www.w3.org/2000/svg">
<style>
  :root {
    --bg-color: #f6f8fa;
    --fg-color: #1f2328;
    --border-color: #d1d9e0;

    @media (prefers-color-scheme: dark) {
        --bg-color: #151b23;
        --fg-color: #f0f6fc;
        --border-color: #3d444d;
    }
  }

  .bg {
    fill: var(--bg-color);
  }

  .fg {
    fill: var(--fg-color);
  }

  .border-color {
    fill: var(--border-color);
  }

  .border {
    stroke: var(--border-color);
    stroke-width: 1.0px;
  }
</style>
<rect class="bg border" width="567.3" height="301.0" x="0.5px" y="0.5px" rx="6px"/>
<g class="fg" font-family="monospace" font-size="14.0px">
<text x="20.0px" y="51.8px" xml:space="preserve">&quot;foo&quot; [ Ctrl+D: Save ] [ Ctrl+C: Cancel ] [ Ctrl+V: Paste ]
</text><text x="20.0px" y="68.6px" xml:space="preserve">
</text><text x="20.0px" y="85.4px" xml:space="preserve"></text><rect class="fg" x="20.0px" y="72.3px" width="8.4px" height="16.4px"/><text class="bg" x="20.0px" y="85.4px" xml:space="preserve">#</text><text class="fg" x="28.4px" y="85.4px" xml:space="preserve"> TOML
</text><text x="20.0px" y="102.2px" xml:space="preserve">password = &quot;hunter2&quot;
</text><text x="20.0px" y="119.0px" xml:space="preserve">otp = &quot;otpauth://totp/Example:alice@google.com?secret=JBSWY3
</text><text x="20.0px" y="135.8px" xml:space="preserve">DPEHPK3PXP&amp;issuer=Example&quot;
</text><text x="20.0px" y="152.6px" xml:space="preserve">
</text><text x="20.0px" y="169.4px" xml:space="preserve">
</text><text x="20.0px" y="186.2px" xml:space="preserve">
</text><text x="20.0px" y="203.0px" xml:space="preserve">
</text><text x="20.0px" y="219.8px" xml:space="preserve">
</text><text x="20.0px" y="236.6px" xml:space="preserve">
</text><text x="20.0px" y="253.4px" xml:space="preserve">
</text><text x="20.0px" y="270.2px" xml:space="preserve">
</text>
</g>
<svg x="500.8px" y="1.0px">
<g class="fg">
<rect x="10" y="13" width="7" height="1.5"/>
<path fill-rule="evenodd" d="M28,8 h9 v9 h-9 z M29,9 h7 v7 h-7 z"/>
<rect x="45.5" y="12" width="12" height="1.15" transform="rotate(45, 51.5, 12.5)"/>
<rect x="45.5" y="12" width="12" height="1.15" transform="rotate(-45, 51.5, 12.5)"/>
</g>
</svg>
</svg>
